<svg xmlns="http://www.w3.org/2000/svg" xmlns:xlink="http://www.w3.org/1999/xlink" xmlns:gg="http:/grass.itc.it/2006/gg" viewBox="-0.067115 -0.051589 0.120628 0.110417">
<title>v.out.svg vector_64299bb5ed57a30 C:/Users/hp/Desktop/BlakeWittmayer.github.io/QGZ/houses.svg</title>
 <g id="G_Areas" fill="#CCC" stroke="#000" stroke-width="0.000121" >
  <path gg:cat="6" d="M -0.045911 -0.007492 l 0.000000 -0.000330 0.001052 0.000001 -0.000000 0.000330 -0.000020 0.000000 -0.001032 -0.000000" />
  <path gg:cat="49" d="M -0.055763 -0.004323 l -0.000000 0.000703 -0.000338 -0.000000 0.000000 -0.000703 0.000337 0.000000" />
  <path gg:cat="67" d="M -0.022855 0.051473 l 0.000210 -0.000114 0.000099 0.000182 -0.000210 0.000114 -0.000099 -0.000182" />
  <path gg:cat="85" d="M 0.049307 0.017467 l 0.000221 -0.000003 0.000004 0.000271 -0.000221 0.000003 -0.000004 -0.000271" />
  <path gg:cat="103" d="M -0.067028 0.041648 l 0.000318 0.000000 0.000000 0.000333 -0.000318 0.000000 0.000000 -0.000333" />
  <path gg:cat="113" d="M 0.005352 0.003410 l 0.000011 -0.000240 0.000179 0.000008 -0.000011 0.000240 -0.000179 -0.000008" />
  <path gg:cat="116" d="M -0.058209 -0.015856 l 0.000211 0.000000 -0.000000 0.000531 -0.000911 -0.000000 -0.000005 0.000000 0.000000 -0.000531 0.000706 0.000000" />
  <path gg:cat="118" d="M 0.014565 -0.051553 l 0.000281 -0.000036 0.000031 0.000242 -0.000281 0.000036 -0.000031 -0.000242" />
  <path gg:cat="123" d="M -0.044829 -0.008503 l -0.000000 0.000361 -0.001081 -0.000001 -0.000000 0.000000 0.000010 -0.000361 0.001072 0.000001" />
  <path gg:cat="72" d="M -0.044829 -0.008503 l -0.001072 -0.000001 0.000000 -0.000640 0.001072 0.000000 -0.000000 0.000640" />
  <path gg:cat="126" d="M -0.050218 -0.011836 l -0.000001 0.001066 -0.001250 -0.000000 0.000000 -0.001066 0.000008 0.000000 0.001242 0.000001" />
  <path gg:cat="157" d="M 0.046491 0.000265 l -0.000007 0.000884 -0.000193 -0.000001 -0.000444 -0.000004 -0.000070 -0.000000 0.000007 -0.000884 0.000707 0.000005" />
  <path gg:cat="129" d="M 0.046484 0.001149 l 0.000007 -0.000884 0.000712 0.000010 -0.000011 0.000884 -0.000083 -0.000001 -0.000626 -0.000009" />
  <path gg:cat="158" d="M -0.051469 -0.010770 l 0.001250 0.000000 0.000006 0.000000 -0.000000 0.000511 -0.000566 -0.000000 -0.000691 -0.000000 0.000000 -0.000511" />
  <path gg:cat="162" d="M -0.000252 0.055865 l -0.000238 0.000000 0.000000 0.000112 -0.000477 0.000000 -0.000000 -0.000359 0.000477 -0.000000 0.000238 -0.000000 0.000000 0.000247" />
  <path gg:cat="170" d="M -0.057189 -0.005103 l 0.000946 0.000000 -0.000000 0.000779 -0.000230 -0.000000 -0.000353 -0.000000 -0.000363 -0.000000 0.000000 -0.000779" />
  <path gg:cat="179" d="M -0.045910 -0.007822 l 0.000000 -0.000320 0.001081 0.000001 -0.000000 0.000320 -0.000029 0.000000 -0.001052 -0.000001" />
  <path gg:cat="203" d="M 0.053208 0.000700 l 0.000305 0.000000 0.000000 0.000342 -0.000305 0.000000 0.000000 -0.000342" />
  <path gg:cat="207" d="M 0.045844 0.001501 l 0.000003 -0.000357 0.000444 0.000004 -0.000003 0.000357 -0.000444 -0.000003" />
  <path gg:cat="208" d="M -0.050779 -0.009437 l -0.000691 -0.000000 0.000000 -0.000821 0.000691 0.000000 -0.000000 0.000821" />
  <path gg:cat="35" d="M -0.051470 -0.009438 l 0.000691 0.000000 0.000536 0.000000 -0.000000 0.000640 -0.001227 -0.000001 0.000000 -0.000640" />
  <path gg:cat="57" d="M -0.045911 -0.007492 l 0.001032 0.000000 -0.000000 0.000421 -0.001032 -0.000000 0.000000 -0.000421" />
  <path gg:cat="9" d="M -0.057132 -0.017795 l -0.000350 0.000000 -0.000000 -0.000934 0.000350 -0.000000 0.000000 0.000934" />
  <path gg:cat="20" d="M 0.043978 -0.000742 l -0.000001 0.000391 -0.000298 -0.000001 0.000002 -0.000391 0.000298 0.000001" />
  <path gg:cat="23" d="M 0.049699 -0.002833 l -0.000001 0.000481 -0.000348 -0.000001 0.000001 -0.000480 0.000348 0.000001" />
  <path gg:cat="196" d="M 0.049698 -0.002353 l 0.000001 -0.000481 0.000336 0.000001 -0.000001 0.000480 -0.000336 -0.000000" />
  <path gg:cat="24" d="M -0.057189 -0.003621 l -0.000343 -0.000000 0.000000 -0.000703 0.000343 0.000000 -0.000000 0.000703" />
  <path gg:cat="74" d="M -0.057533 -0.004324 l -0.000000 0.000703 -0.001363 -0.000001 0.000001 -0.001444 0.001363 0.000001 -0.000000 0.000741" />
  <path gg:cat="31" d="M -0.055759 -0.017795 l -0.000347 0.000000 -0.000000 -0.000935 0.000347 0.000000 0.000000 0.000934" />
  <path gg:cat="34" d="M 0.044163 0.001278 l 0.000001 -0.000841 0.000487 0.000001 -0.000001 0.000842 -0.000487 -0.000002" />
  <path gg:cat="136" d="M 0.044165 0.000437 l -0.000001 0.000841 -0.001270 -0.000002 0.000001 -0.000841 0.001270 0.000002" />
  <path gg:cat="138" d="M -0.057172 -0.006654 l 0.000468 0.000000 0.000370 0.000000 -0.000000 0.000872 -0.000837 -0.000000 0.000000 -0.000872" />
  <path gg:cat="38" d="M -0.056705 -0.006654 l -0.000468 -0.000000 0.000000 -0.000000 0.000468 0.000000 -0.000000 0.000000" />
  <path gg:cat="48" d="M 0.050333 -0.002832 l 0.000257 0.000000 0.000153 0.000000 -0.000000 0.000226 -0.000153 -0.000000 -0.000000 0.000254 -0.000257 -0.000000 0.000001 -0.000481" />
  <path gg:cat="58" d="M 0.049139 0.003557 l 0.000392 0.000002 -0.000005 0.001071 -0.000392 -0.000002 0.000002 -0.000403 0.000003 -0.000668" />
  <path gg:cat="60" d="M -0.057482 -0.017795 l -0.000347 0.000000 -0.000000 -0.000934 0.000347 -0.000000 0.000000 0.000934" />
  <path gg:cat="66" d="M -0.058209 -0.016362 l -0.000000 0.000506 -0.000706 -0.000000 0.000000 -0.000506 0.000706 0.000000" />
  <path gg:cat="69" d="M 0.001806 0.052792 l 0.000000 0.000446 0.000000 0.000658 -0.000707 0.000000 -0.000001 -0.001103 0.000707 -0.000000" />
  <path gg:cat="18" d="M 0.001806 0.053238 l -0.000000 -0.000446 0.000782 -0.000000 0.000000 0.000446 -0.000389 0.000000 0.000000 0.000195 -0.000393 0.000000 -0.000000 -0.000195" />
  <path gg:cat="73" d="M 0.050589 -0.002351 l -0.000000 0.000140 0.000251 0.000000 -0.000001 0.000694 -0.000251 -0.000000 -0.000891 -0.000001 0.000001 -0.000834 0.000336 0.000000 0.000298 0.000001 0.000257 0.000000" />
  <path gg:cat="95" d="M 0.050589 -0.002211 l 0.000000 -0.000140 0.000000 -0.000254 0.000153 0.000000 0.000145 0.000000 -0.000001 0.000394 -0.000047 -0.000000 0.000000 -0.000000 -0.000251 -0.000000" />
  <path gg:cat="78" d="M -0.047503 -0.010335 l 0.000000 -0.000401 0.000000 -0.000802 0.000440 0.000000 0.000532 0.000000 -0.000001 0.002222 -0.000671 -0.000000 -0.000302 -0.000000 0.000001 -0.001020" />
  <path gg:cat="81" d="M -0.056106 -0.017795 l -0.000341 0.000000 -0.000000 -0.000934 0.000341 -0.000000 0.000000 0.000935" />
  <path gg:cat="86" d="M -0.056335 -0.006654 l -0.000370 -0.000000 0.000000 -0.000000 0.000370 0.000000" />
  <path gg:cat="87" d="M 0.046725 -0.000599 l 0.000000 -0.000250 0.000000 -0.000101 0.000471 0.000000 -0.000000 0.000587 -0.000254 -0.000000 0.000000 -0.000236 -0.000217 -0.000000" />
  <path gg:cat="14" d="M 0.046725 -0.000850 l -0.000000 0.000250 -0.000000 0.000233 -0.000259 -0.000000 0.000000 -0.000483 0.000258 0.000000" />
  <path gg:cat="96" d="M -0.056101 -0.003620 l -0.000372 -0.000000 0.000000 -0.000703 0.000372 0.000000 -0.000000 0.000703" />
  <path gg:cat="102" d="M -0.060026 -0.020160 l -0.000000 0.000541 -0.000650 -0.000000 0.000000 -0.000541 0.000650 0.000000" />
  <path gg:cat="54" d="M -0.060026 -0.019620 l 0.000000 -0.000541 0.000506 0.000000 -0.000000 0.000541 -0.000506 -0.000000" />
  <path gg:cat="107" d="M 0.049531 0.003559 l 0.000325 0.000002 0.000000 0.000010 -0.000004 0.000743 -0.000001 0.000282 -0.000003 0.000566 -0.001102 -0.000005 0.000003 -0.000530 0.000385 0.000002 0.000392 0.000002 0.000005 -0.001071" />
  <path gg:cat="109" d="M -0.057829 -0.017795 l -0.000350 0.000000 -0.000000 -0.000934 0.000350 -0.000000 0.000000 0.000934" />
  <path gg:cat="110" d="M -0.000490 0.055618 l -0.000000 -0.000378 0.000837 -0.000000 0.000002 0.001294 -0.000600 0.000000 -0.000000 -0.000669 -0.000000 -0.000247 -0.000238 0.000000" />
  <path gg:cat="61" d="M -0.000490 0.055240 l 0.000000 0.000378 -0.000477 0.000000 -0.000000 -0.000378 0.000477 -0.000000" />
  <path gg:cat="75" d="M -0.000251 0.056534 l 0.000600 -0.000000 0.000057 0.000000 0.000000 0.000417 -0.000657 0.000000 -0.000000 -0.000417" />
  <path gg:cat="119" d="M -0.056101 -0.004324 l -0.000142 -0.000000 0.000000 -0.000779 0.000480 0.000000 -0.000000 0.000779 -0.000337 -0.000000" />
  <path gg:cat="180" d="M -0.050218 -0.011836 l -0.001242 -0.000001 0.000001 -0.001672 0.001243 0.000001 -0.000001 0.001672" />
  <path gg:cat="132" d="M 0.049906 -0.001383 l -0.000002 0.000946 -0.000000 0.000078 -0.002022 -0.000003 0.000002 -0.001024 0.002022 0.000003" />
  <path gg:cat="174" d="M 0.049904 -0.000437 l 0.000002 -0.000946 0.000427 0.000001 -0.000001 0.000547 -0.000004 0.000398 -0.000424 -0.000001" />
  <path gg:cat="133" d="M -0.056446 -0.017795 l -0.000355 0.000000 -0.000000 -0.000934 0.000355 -0.000000 0.000000 0.000934" />
  <path gg:cat="141" d="M -0.058209 -0.016362 l -0.000706 -0.000000 -0.000000 -0.000510 0.000245 -0.000235 0.000476 0.000005 -0.000015 0.000741" />
  <path gg:cat="143" d="M -0.057172 -0.006654 l -0.000000 0.000872 -0.001672 -0.000001 0.000001 -0.001247 0.001231 0.000001 -0.000000 0.000375 0.000441 0.000000 -0.000000 0.000000" />
  <path gg:cat="148" d="M 0.050332 -0.002352 l -0.000298 -0.000001 0.000001 -0.000480 0.000298 0.000000 -0.000001 0.000481" />
  <path gg:cat="149" d="M -0.056473 -0.003620 l -0.000353 -0.000000 0.000000 -0.000703 0.000353 0.000000 -0.000000 0.000703" />
  <path gg:cat="155" d="M -0.055070 -0.017795 l -0.000345 0.000000 -0.000000 -0.000934 0.000345 -0.000000 0.000000 0.000935" />
  <path gg:cat="159" d="M 0.049134 0.004628 l -0.000385 -0.000002 -0.000019 -0.000000 -0.000001 0.000151 -0.000195 -0.000001 0.000003 -0.000552 -0.000335 -0.000002 0.000003 -0.000671 0.000933 0.000004 -0.000003 0.000668 -0.000002 0.000403" />
  <path gg:cat="161" d="M -0.058180 -0.017794 l -0.000347 0.000000 -0.000000 -0.000935 0.000347 0.000000 0.000000 0.000934" />
  <path gg:cat="166" d="M 0.044262 -0.000742 l 0.000406 0.000002 -0.000002 0.000392 -0.000407 -0.000002 0.000000 -0.000000 0.000001 0.000000 0.000000 -0.000392" />
  <path gg:cat="114" d="M 0.044669 -0.000740 l -0.000406 -0.000002 -0.000284 -0.000000 0.000001 -0.000599 0.000000 -0.000001 0.000691 0.000001 -0.000001 0.000601" />
  <path gg:cat="168" d="M -0.057998 -0.015070 l -0.000360 -0.000000 -0.000551 -0.000000 0.000000 -0.000255 0.000911 0.000000 -0.000000 0.000255" />
  <path gg:cat="47" d="M -0.058358 -0.015071 l 0.000360 0.000000 -0.000000 0.000941 -0.000360 -0.000000 0.000001 -0.000941" />
  <path gg:cat="125" d="M 0.050332 -0.000834 l 0.000001 -0.000547 0.000514 0.000001 -0.000001 0.000547 -0.000514 -0.000001" />
  <path gg:cat="176" d="M 0.001532 0.058404 l -0.000000 -0.000636 -0.000000 -0.000067 -0.000000 -0.000489 0.001051 -0.000001 0.000000 0.000556 -0.000813 0.000000 0.000000 0.000636 -0.000238 0.000000" />
  <path gg:cat="2" d="M 0.001532 0.057701 l 0.000000 0.000067 0.000000 0.000636 -0.000428 0.000000 -0.000000 -0.000702 0.000428 -0.000000" />
  <path gg:cat="178" d="M 0.047106 0.001484 l -0.000411 -0.000001 0.000001 -0.000331 0.000414 0.000006 -0.000004 0.000326" />
  <path gg:cat="56" d="M 0.046695 0.001484 l 0.000411 0.000001 -0.000001 0.000348 -0.000411 -0.000001 0.000001 -0.000348" />
  <path gg:cat="182" d="M -0.057132 -0.017795 l -0.000000 -0.000934 0.000331 0.000000 0.000000 0.000934 -0.000331 0.000000" />
  <path gg:cat="191" d="M 0.003257 0.052911 l 0.000589 -0.000000 0.000714 -0.000000 0.000001 0.001696 -0.000998 0.000004 -0.000312 -0.000320 0.000006 -0.001380" />
  <path gg:cat="144" d="M 0.003846 0.052911 l -0.000589 0.000000 -0.000000 -0.000791 0.000589 -0.000000 0.000000 0.000791" />
  <path gg:cat="40" d="M -0.059533 -0.018637 l -0.000761 -0.000000 0.000000 -0.000873 0.000761 0.000000 -0.000000 0.000873" />
  <path gg:cat="192" d="M -0.060293 -0.018638 l 0.000761 0.000000 -0.000000 0.000417 -0.000051 -0.000000 -0.000000 0.000549 -0.000752 -0.000000 0.000000 -0.000549 -0.000064 -0.000000 0.000000 -0.000417 0.000107 0.000000" />
  <path gg:cat="193" d="M 0.043979 -0.001341 l -0.000001 0.000599 -0.000298 -0.000001 -0.000002 0.000391 -0.000247 -0.000001 0.000002 -0.000989 0.000546 0.000001" />
  <path gg:cat="197" d="M -0.056826 -0.003621 l -0.000363 -0.000000 0.000000 -0.000703 0.000363 0.000000 -0.000000 0.000703" />
  <path gg:cat="198" d="M 0.003934 0.056778 l 0.000000 0.000497 -0.000499 0.000021 -0.000000 -0.000535 0.000499 0.000017" />
  <path gg:cat="150" d="M 0.003934 0.057274 l -0.000000 -0.000497 0.000527 -0.000000 0.000000 0.000496 -0.000527 0.000000" />
  <path gg:cat="98" d="M -0.067115 0.043192 l 0.000435 0.000000 0.000314 0.000000 0.000000 0.000305 -0.000749 0.000000 0.000000 -0.000305" />
  <path gg:cat="199" d="M -0.066680 0.043192 l -0.000435 0.000000 0.000000 -0.000361 0.000435 0.000000 0.000000 0.000361" />
  <path gg:cat="205" d="M -0.055759 -0.017795 l -0.000000 -0.000934 0.000344 -0.000000 0.000000 0.000934 -0.000344 0.000000" />
  <path gg:cat="211" d="M -0.058527 -0.018729 l 0.000000 0.000935 -0.000359 0.000000 -0.000000 -0.000934 0.000359 -0.000000" />
  <path gg:cat="111" d="M -0.058526 -0.019182 l -0.000000 -0.000906 0.000340 -0.000000 0.000000 0.000906 -0.000340 0.000000" />
  <path gg:cat="213" d="M -0.058526 -0.020088 l 0.000000 0.000906 -0.000350 0.000000 -0.000000 -0.000906 0.000350 -0.000000" />
  <path gg:cat="216" d="M 0.043978 -0.000742 l 0.000284 0.000000 -0.000002 0.000392 -0.000283 -0.000000 0.000000 -0.000393" />
  <path gg:cat="218" d="M -0.059570 -0.014990 l -0.000531 -0.000000 0.000000 -0.000761 0.000531 0.000000 -0.000000 0.000761" />
  <path gg:cat="195" d="M -0.060102 -0.014991 l 0.000531 0.000000 -0.000000 0.000852 -0.001722 -0.000001 0.000000 -0.000852 0.001191 0.000001" />
  <path gg:cat="220" d="M -0.057189 -0.004324 l -0.000343 -0.000000 0.000000 -0.000741 0.000000 -0.000038 0.000343 0.000000 -0.000000 0.000779" />
  <path gg:cat="223" d="M -0.059540 -0.004586 l -0.000832 -0.000000 0.000000 -0.000471 0.000832 0.000000 -0.000000 0.000471" />
  <path gg:cat="51" d="M -0.060372 -0.004586 l 0.000832 0.000000 -0.000001 0.000961 -0.000842 -0.000000 0.000010 -0.000961" />
  <path gg:cat="225" d="M -0.055070 -0.017795 l -0.000000 -0.000935 0.000379 -0.000000 0.000000 0.000934 -0.000379 0.000000" />
  <path gg:cat="227" d="M 0.050332 -0.000834 l 0.000514 0.000001 -0.000001 0.000478 -0.000517 -0.000001 0.000001 -0.000080 0.000003 0.000000 0.000001 -0.000398" />
  <path gg:cat="38" d="M -0.056705 -0.006654 l -0.000468 -0.000000 0.000000 -0.000395 0.000468 0.000000 -0.000000 0.000395" />
  <path gg:cat="86" d="M -0.056335 -0.006654 l -0.000370 -0.000000 0.000000 -0.000395 0.000370 0.000000 -0.000000 0.000395" />
  <path gg:cat="166" d="M 0.044261 -0.000350 l 0.000002 -0.000392 -0.000000 0.000392 -0.000001 -0.000000" />
  <path gg:cat="174" d="M 0.050332 -0.000834 l -0.000001 0.000398 -0.000003 -0.000000 0.000004 -0.000398" />
  <path gg:cat="73" d="M 0.050589 -0.002211 l 0.000251 0.000000 -0.000000 0.000000 -0.000251 -0.000000" />
  <path gg:cat="1" d="M 0.006553 -0.011109 l -0.000002 0.000175 -0.000965 -0.000009 0.000006 -0.000630 0.000576 0.000005 0.000014 -0.001495 -0.000272 -0.000289 0.000001 -0.000556 0.000394 0.000001 0.000000 -0.000153 0.000602 0.000001 -0.000001 0.000421 0.001123 0.000002 0.000000 -0.000253 0.002033 0.000003 0.000513 0.000537 -0.000004 0.000447 0.000153 0.000001 -0.000018 0.001959 -0.000564 -0.000005 -0.000003 0.000323 -0.002060 -0.000019 0.000005 -0.000573 -0.000851 -0.000008 -0.000001 0.000165 -0.000679 -0.000050M 0.006341 -0.013069 l -0.000009 0.001006 0.000904 -0.000024 -0.000003 0.000325 0.001706 -0.000110 0.000009 -0.001016 -0.001507 -0.000013 0.000001 -0.000159 -0.001102 -0.000010" />
  <path gg:cat="3" d="M -0.067044 0.042702 l 0.000000 -0.000358 0.000321 0.000000 0.000000 0.000358 -0.000321 0.000000" />
  <path gg:cat="4" d="M -0.020490 0.023457 l -0.000058 0.000224 -0.000732 -0.000189 0.000058 -0.000224 0.000732 0.000189" />
  <path gg:cat="5" d="M 0.047876 0.002106 l 0.000220 0.000000 -0.000001 0.000400 0.000825 0.000001 -0.000001 0.000381 -0.001045 -0.000002 0.000001 -0.000781" />
  <path gg:cat="7" d="M 0.044297 0.002415 l 0.000349 0.000001 -0.000001 0.000437 -0.000349 -0.000001 0.000001 -0.000437" />
  <path gg:cat="8" d="M -0.028711 -0.044117 l -0.000619 -0.000381 0.000336 -0.000545 0.000619 0.000381 -0.000336 0.000545" />
  <path gg:cat="10" d="M -0.056328 -0.017072 l 0.002435 -0.000000 0.000000 0.002862 -0.002435 0.000000 -0.000000 -0.001866 -0.000000 -0.000996" />
  <path gg:cat="11" d="M -0.001612 0.054576 l -0.000764 0.000000 -0.000000 -0.000490 0.000764 -0.000000 0.000000 0.000490" />
  <path gg:cat="12" d="M -0.046521 -0.003576 l -0.002244 -0.000001 0.000001 -0.001471 0.002244 0.000001 -0.000001 0.001471" />
  <path gg:cat="13" d="M 0.042929 0.004892 l -0.000031 -0.001360 0.001742 0.000003 -0.000003 0.001613 -0.001510 -0.000062 -0.000199 -0.000194" />
  <path gg:cat="15" d="M -0.028205 -0.043162 l -0.000092 -0.000703 0.000695 -0.000091 0.000092 0.000703 -0.000694 0.000091" />
  <path gg:cat="16" d="M -0.000484 0.058412 l -0.000462 0.000000 -0.000000 -0.000493 0.000462 -0.000000 0.000000 0.000493" />
  <path gg:cat="17" d="M -0.060832 -0.009353 l -0.000000 0.000471 -0.001403 -0.000001 0.000002 -0.003184 0.001403 0.000001 -0.000001 0.001516 -0.000000 0.000281 -0.000000 0.000645 -0.000000 0.000271" />
  <path gg:cat="19" d="M 0.040403 0.015793 l 0.000000 -0.001008 0.000493 0.000000 0.000413 0.000000 0.000000 0.000376 -0.000413 0.000000 0.000000 0.000632 -0.000493 0.000000" />
  <path gg:cat="21" d="M -0.028837 -0.037619 l -0.000029 -0.000643 0.000709 -0.000032 0.000029 0.000643 -0.000709 0.000032" />
  <path gg:cat="22" d="M -0.044789 -0.009243 l -0.000610 -0.000000 0.000000 -0.000561 0.000160 0.000000 0.000000 -0.000360 0.000451 0.000000 -0.000001 0.000921" />
  <path gg:cat="25" d="M 0.001069 0.057097 l -0.000001 -0.001864 0.001527 -0.000001 0.000001 0.001864 -0.001527 0.000001" />
  <path gg:cat="26" d="M -0.011154 0.031825 l 0.000000 -0.000823 -0.000229 0.000000 0.000000 -0.000582 0.000229 0.000000 0.000000 -0.000853 0.000637 0.000000 0.000000 0.002258 -0.000637 0.000000" />
  <path gg:cat="27" d="M 0.049856 0.003570 l 0.000998 0.000002 -0.000001 0.000743 -0.000780 -0.000001 -0.000000 0.000282 0.000782 0.000001 -0.000001 0.000568 -0.001005 -0.000004 0.000003 -0.000566 0.000001 -0.000282 0.000004 -0.000743" />
  <path gg:cat="28" d="M -0.047407 -0.012123 l -0.001307 -0.000001 0.000001 -0.001386 0.000466 0.000000 0.000842 0.000000 -0.000001 0.001386" />
  <path gg:cat="29" d="M -0.054458 -0.005755 l -0.000604 -0.000000 0.000000 -0.000425 -0.000425 -0.000000 -0.000110 -0.000104 0.000004 -0.000212 0.000106 -0.000089 0.000425 0.000000 0.000000 -0.000440 0.000604 0.000000 -0.000000 0.000450 0.000300 0.000000 0.000129 0.000102 0.000002 0.000198 -0.000131 0.000083 -0.000300 -0.000000 -0.000000 0.000437" />
  <path gg:cat="30" d="M 0.047233 -0.002022 l -0.000632 -0.000000 0.000000 -0.000909 0.000632 0.000000 -0.000001 0.000909" />
  <path gg:cat="32" d="M 0.045699 -0.009082 l 0.001428 -0.000269 0.000129 0.000687 -0.001428 0.000269 -0.000129 -0.000687" />
  <path gg:cat="33" d="M -0.022602 0.035161 l -0.000327 -0.000337 0.000876 -0.000848 0.000327 0.000337 -0.000876 0.000848" />
  <path gg:cat="36" d="M 0.046507 0.005188 l -0.000568 0.000003 -0.000145 -0.000164 0.000005 -0.000417 0.000710 0.000001 -0.000001 0.000577" />
  <path gg:cat="37" d="M -0.012561 -0.045648 l 0.000578 0.000603 -0.000228 0.000219 -0.000578 -0.000603 0.000228 -0.000219" />
  <path gg:cat="39" d="M -0.040518 -0.048343 l -0.000002 -0.000096 -0.000143 0.000003 -0.000005 -0.000250 0.000441 -0.000009 0.000004 0.000213 0.000624 -0.000013 0.000003 0.000133 -0.000923 0.000019" />
  <path gg:cat="41" d="M -0.000594 0.056995 l -0.000386 0.000000 -0.000000 -0.000819 0.000386 -0.000000 0.000000 0.000819" />
  <path gg:cat="42" d="M -0.052213 -0.001604 l -0.001137 -0.000001 0.000000 -0.000368 0.001136 0.000008 -0.000000 0.000361" />
  <path gg:cat="43" d="M 0.005201 0.047821 l 0.000274 0.000123 -0.000187 0.000418 -0.000274 -0.000123 0.000187 -0.000418" />
  <path gg:cat="44" d="M -0.056328 -0.014210 l -0.001558 0.000000 -0.000000 -0.001866 -0.000150 0.000000 -0.000000 -0.000996 0.001708 -0.000000 0.000000 0.000996 0.000000 0.001866" />
  <path gg:cat="45" d="M 0.026068 -0.016868 l -0.000001 0.000314 -0.000886 -0.000002 0.000001 -0.000314 0.000886 0.000002" />
  <path gg:cat="46" d="M -0.030184 -0.043425 l -0.000549 0.000417 -0.000377 -0.000497 0.000549 -0.000417 0.000377 0.000497" />
  <path gg:cat="50" d="M 0.005583 0.055227 l 0.000000 0.000420 -0.000382 0.000000 -0.000000 -0.000420 0.000382 -0.000000" />
  <path gg:cat="52" d="M -0.045140 -0.014100 l -0.001401 -0.000001 0.000001 -0.001012 0.001401 0.000001 -0.000000 0.001012" />
  <path gg:cat="53" d="M 0.047035 -0.004318 l 0.000326 -0.000002 -0.000004 0.000471 -0.000322 0.000003 0.000000 -0.000472" />
  <path gg:cat="55" d="M -0.012665 0.028709 l 0.000327 0.000000 0.000000 0.000484 -0.000327 0.000000 0.000000 -0.000484" />
  <path gg:cat="59" d="M -0.030016 -0.043489 l -0.000409 -0.000539 0.000611 -0.000464 0.000409 0.000539 -0.000611 0.000464" />
  <path gg:cat="62" d="M -0.050456 0.001126 l -0.000296 -0.000203 -0.000170 -0.000341 0.000011 -0.001725 0.000088 -0.000397 0.000314 -0.000247 0.000644 -0.000084 0.000000 -0.000340 0.001912 0.000001 0.000612 0.000520 -0.000014 0.001946 -0.000801 -0.000006 -0.000003 0.000387 -0.000173 0.000234 -0.000543 0.000340 -0.001581 -0.000084" />
  <path gg:cat="63" d="M 0.044245 0.006508 l -0.001047 -0.000001 0.000001 -0.000559 0.000852 0.000001 0.000000 -0.000138 0.000601 0.000001 -0.000001 0.001037 -0.000406 -0.000001 0.000000 -0.000340" />
  <path gg:cat="64" d="M 0.046355 -0.000950 l -0.000000 0.000594 -0.000499 -0.000000 0.000000 -0.000594 0.000499 0.000000" />
  <path gg:cat="65" d="M -0.029908 -0.043392 l 0.000467 0.000081 -0.000052 0.000301 -0.000467 -0.000081 0.000052 -0.000301" />
  <path gg:cat="68" d="M -0.066024 -0.007226 l -0.000546 -0.000000 0.000001 -0.001462 0.000546 0.000000 0.000001 -0.001594 0.001560 0.000001 -0.000001 0.001127 -0.000574 -0.000000 -0.000000 0.000467 0.000558 0.000000 -0.000000 0.000750 -0.000000 0.000712 -0.000553 -0.000000 -0.000000 0.000448 0.000545 0.000000 -0.000001 0.001171 -0.001535 -0.000001 0.000001 -0.001620" />
  <path gg:cat="70" d="M 0.042713 -0.001467 l -0.000001 0.000621 -0.000668 -0.000001 0.000001 -0.000621 0.000668 0.000001" />
  <path gg:cat="71" d="M -0.034499 -0.019948 l -0.000492 -0.000232 0.000337 -0.000715 0.000492 0.000232 -0.000337 0.000715" />
  <path gg:cat="76" d="M -0.018799 0.023326 l -0.000120 0.000196 -0.000665 -0.000406 0.000120 -0.000196 0.000665 0.000406" />
  <path gg:cat="77" d="M 0.047876 0.002106 l 0.000000 -0.000335 0.000183 0.000000 0.000000 -0.000413 -0.000332 -0.000000 0.000000 -0.000673 0.000155 0.000000 0.000000 -0.000380 0.001052 0.000000 -0.000001 0.001802 -0.001059 -0.000001" />
  <path gg:cat="79" d="M -0.047503 -0.010735 l -0.001161 -0.000001 0.000001 -0.001292 0.001601 0.000001 -0.000000 0.000491 -0.000440 -0.000000 -0.000000 0.000802" />
  <path gg:cat="80" d="M 0.046721 -0.001872 l 0.000340 0.000000 -0.000000 0.000424 -0.000340 -0.000000 0.000000 -0.000424" />
  <path gg:cat="82" d="M -0.044550 0.025163 l -0.000343 0.000161 -0.000398 -0.000850 0.000666 -0.000312 0.000132 0.000282 -0.000323 0.000151 0.000266 0.000568" />
  <path gg:cat="83" d="M 0.045844 0.001501 l 0.000313 0.000002 -0.000002 0.000221 0.000110 0.000001 -0.000002 0.000302 -0.000423 -0.000003 0.000004 -0.000524" />
  <path gg:cat="84" d="M -0.051841 -0.008901 l -0.001436 -0.000001 0.000001 -0.001638 0.001436 0.000001 -0.000001 0.001638" />
  <path gg:cat="88" d="M -0.026769 -0.043250 l -0.000093 -0.000711 0.000634 -0.000083 0.000093 0.000711 -0.000634 0.000083" />
  <path gg:cat="89" d="M -0.000197 0.057404 l -0.000750 0.000000 -0.000000 -0.000385 0.000750 -0.000000 0.000000 0.000385" />
  <path gg:cat="90" d="M -0.060831 -0.010550 l 0.000119 0.000000 0.000000 -0.000516 0.000886 0.000000 -0.000000 0.000516 0.000296 0.000000 -0.000000 0.000281 -0.000135 0.000000 -0.000000 0.000645 0.000105 0.000000 -0.000000 0.000271 -0.000268 -0.000000 -0.000000 0.000510 -0.000869 -0.000000 0.000000 -0.000510 -0.000135 0.000000 0.000000 -0.000271 0.000000 -0.000645 0.000000 -0.000281" />
  <path gg:cat="91" d="M 0.007051 0.055547 l -0.000000 -0.000261 -0.000090 0.000000 -0.000000 -0.000620 0.000090 -0.000000 -0.000044 -0.000700 0.000834 0.000035 0.000000 0.000306 -0.000172 0.000000 0.000001 0.001239 -0.000619 0.000000" />
  <path gg:cat="92" d="M 0.044213 -0.004159 l -0.000397 -0.000001 -0.000000 0.000072 -0.000273 -0.000000 0.000000 -0.000072 -0.000394 -0.000001 0.000001 -0.000475 0.001065 0.000002 -0.000001 0.000475" />
  <path gg:cat="93" d="M -0.027857 -0.040551 l -0.000098 -0.000745 0.000638 -0.000084 0.000097 0.000745 -0.000637 0.000083" />
  <path gg:cat="94" d="M -0.058489 -0.014847 l -0.000000 0.000673 -0.000356 -0.000000 0.000000 -0.000673 0.000356 0.000000" />
  <path gg:cat="97" d="M 0.003259 0.056678 l -0.000001 -0.001431 0.001266 -0.000001 0.000001 0.001431 -0.001266 0.000001" />
  <path gg:cat="99" d="M -0.053943 0.000391 l -0.002703 -0.000000 0.000000 -0.001672 0.001252 0.000000 0.000000 -0.000230 0.001452 0.000000 -0.000000 0.001903" />
  <path gg:cat="100" d="M -0.047402 -0.014050 l -0.001212 -0.000000 0.000001 -0.001632 0.001212 0.000001 -0.000001 0.001632" />
  <path gg:cat="101" d="M 0.045865 -0.005135 l 0.000490 0.000000 -0.000000 0.000335 -0.000490 -0.000000 0.000000 -0.000335" />
  <path gg:cat="104" d="M -0.020859 0.034851 l -0.000710 -0.000733 0.000353 -0.000342 0.000710 0.000733 -0.000353 0.000342" />
  <path gg:cat="105" d="M 0.047185 0.002905 l -0.000915 -0.000002 0.000001 -0.000674 0.000415 0.000001 0.000000 -0.000182 0.000500 0.000001 -0.000001 0.000856" />
  <path gg:cat="106" d="M -0.046521 -0.005719 l -0.002239 -0.000001 0.000001 -0.001546 0.002239 0.000001 -0.000001 0.001546" />
  <path gg:cat="108" d="M -0.032460 -0.046210 l -0.000122 -0.000610 0.000693 -0.000139 0.000122 0.000610 -0.000693 0.000138" />
  <path gg:cat="112" d="M -0.050385 -0.003727 l -0.000822 -0.000006 0.000008 -0.001271 0.000822 0.000001 -0.000008 0.001276" />
  <path gg:cat="115" d="M -0.027955 -0.041494 l -0.000092 -0.000703 0.000638 -0.000083 0.000092 0.000703 -0.000638 0.000083" />
  <path gg:cat="117" d="M -0.025897 0.055956 l -0.000001 0.000290 -0.000183 -0.000001 0.000001 0.000123 -0.000558 -0.000002 0.000010 -0.000964 0.000276 0.000001 0.000275 0.000001 -0.000001 0.000252 0.000182 0.000001 -0.000001 0.000300" />
  <path gg:cat="120" d="M 0.001718 0.054596 l -0.000000 -0.000619 0.000867 -0.000000 0.000000 0.000619 -0.000867 0.000000" />
  <path gg:cat="121" d="M 0.041655 -0.001343 l 0.000388 0.000001 -0.000001 0.000363 -0.000388 -0.000001 0.000001 -0.000363" />
  <path gg:cat="122" d="M -0.024725 0.001008 l 0.000196 -0.000479 -0.000574 -0.000236 0.000208 -0.000508 0.000236 0.000097 0.000588 -0.001433 0.000822 0.000337 -0.000232 0.000565 -0.000603 -0.000247 -0.000356 0.000867 0.001325 0.000544 -0.000405 0.000986 -0.001206 -0.000495" />
  <path gg:cat="124" d="M 0.041875 0.017274 l 0.000000 0.000974 -0.000728 0.000000 0.000000 -0.000974 0.000728 0.000000" />
  <path gg:cat="127" d="M 0.005193 0.058276 l 0.000000 0.000551 -0.000786 0.000000 -0.000000 -0.000551 0.000786 -0.000000" />
  <path gg:cat="128" d="M -0.020016 0.022575 l -0.000138 0.000158 -0.000573 -0.000501 0.000138 -0.000158 0.000573 0.000501" />
  <path gg:cat="130" d="M -0.047202 -0.009314 l -0.000000 0.000701 -0.001463 -0.000001 0.000001 -0.001722 0.001161 0.000001 -0.000001 0.001020 0.000302 0.000000" />
  <path gg:cat="131" d="M -0.051990 -0.014289 l -0.000001 -0.002864 0.001892 -0.000000 0.000001 0.002864 -0.001892 0.000000" />
  <path gg:cat="134" d="M -0.044532 0.030154 l -0.000255 0.000301 -0.000623 -0.000530 0.000255 -0.000301 0.000623 0.000530" />
  <path gg:cat="135" d="M -0.050218 -0.005608 l -0.001322 -0.000001 0.000001 -0.001501 0.001216 0.000000 0.000107 0.000000 -0.000001 0.001501" />
  <path gg:cat="137" d="M -0.012639 -0.044392 l -0.000225 0.000225 -0.000598 -0.000598 0.000225 -0.000225 0.000598 0.000598" />
  <path gg:cat="139" d="M 0.046386 -0.001929 l -0.000530 -0.000000 0.000000 -0.001011 0.000530 0.000000 -0.000000 0.001011" />
  <path gg:cat="140" d="M -0.026552 -0.041686 l -0.000094 -0.000717 0.000691 -0.000090 0.000094 0.000717 -0.000691 0.000090" />
  <path gg:cat="142" d="M -0.003015 0.057022 l -0.000000 -0.000623 0.001223 -0.000001 0.000000 0.000623 -0.001223 0.000001" />
  <path gg:cat="145" d="M 0.042732 -0.001676 l -0.000975 -0.000002 0.000001 -0.000719 0.000176 0.000000 0.000001 -0.000530 0.000800 0.000002 -0.000003 0.001249" />
  <path gg:cat="146" d="M -0.027469 -0.039356 l -0.000567 -0.000350 0.000379 -0.000615 0.000567 0.000349 -0.000379 0.000615" />
  <path gg:cat="147" d="M -0.059505 -0.012156 l -0.000702 -0.000000 0.000001 -0.001391 0.000702 0.000000 -0.000001 0.001392" />
  <path gg:cat="151" d="M -0.059816 0.000253 l -0.000747 0.000000 -0.000156 -0.000000 0.000000 -0.001246 0.000904 0.000000 -0.000000 0.001247" />
  <path gg:cat="152" d="M 0.011770 -0.008890 l -0.000705 -0.001243 0.001081 -0.000613 0.000706 0.001243 -0.001081 0.000613" />
  <path gg:cat="153" d="M -0.044510 -0.010785 l -0.001352 -0.000001 0.000001 -0.002693 0.000552 0.000000 -0.000000 0.000250 0.000800 0.000000 -0.000001 0.002444" />
  <path gg:cat="154" d="M 0.046668 -0.004181 l -0.000000 0.000300 -0.000662 -0.000000 0.000000 -0.000300 0.000662 0.000000" />
  <path gg:cat="156" d="M -0.022809 0.021831 l 0.000211 0.000092 -0.000318 0.000727 -0.000211 -0.000092 0.000318 -0.000727" />
  <path gg:cat="160" d="M -0.032243 -0.044694 l -0.000429 -0.000486 0.000533 -0.000469 0.000429 0.000486 -0.000532 0.000469" />
  <path gg:cat="163" d="M -0.052384 -0.003697 l -0.000840 -0.000000 0.000001 -0.001351 0.000840 0.000000 -0.000001 0.001351" />
  <path gg:cat="164" d="M 0.011426 0.022525 l -0.000090 0.000033 -0.000337 -0.000924 0.000804 -0.000294 0.000337 0.000924 0.000326 -0.000119 0.000407 0.001116 -0.001040 0.000380 -0.000407 -0.001116" />
  <path gg:cat="165" d="M -0.015798 -0.045742 l 0.000267 0.000274 0.001331 -0.001297 0.000223 0.000228 0.000332 0.000340 -0.001164 0.001135 -0.000332 -0.000340 -0.000166 0.000162 0.000258 0.000265 -0.000485 0.000473 -0.000610 0.000594 -0.000712 0.000694 -0.000481 -0.000493 0.001321 -0.001288 -0.000267 -0.000274 0.000485 -0.000473" />
  <path gg:cat="167" d="M -0.029424 -0.042624 l 0.000205 0.000267 -0.000288 0.000221 -0.000205 -0.000267 0.000288 -0.000221" />
  <path gg:cat="169" d="M 0.018661 -0.045590 l -0.000289 0.000136 -0.000273 -0.000581 0.000289 -0.000136 0.000274 0.000581" />
  <path gg:cat="171" d="M 0.001583 0.054591 l -0.000517 0.000000 -0.000000 -0.000624 0.000517 -0.000000 0.000000 0.000625" />
  <path gg:cat="172" d="M 0.040067 0.000419 l -0.000352 -0.000001 -0.000674 -0.000001 0.000001 -0.000908 0.000524 0.000001 0.000501 0.000001 -0.000001 0.000454 -0.000001 0.000454" />
  <path gg:cat="173" d="M -0.036024 -0.010920 l 0.000256 0.000074 -0.000214 0.000741 -0.000256 -0.000074 0.000214 -0.000741" />
  <path gg:cat="175" d="M -0.051771 -0.011355 l -0.001531 -0.000001 0.000001 -0.002074 0.001531 0.000001 -0.000001 0.002073" />
  <path gg:cat="177" d="M -0.019617 0.023923 l -0.000120 0.000196 -0.000665 -0.000406 0.000120 -0.000196 0.000665 0.000406" />
  <path gg:cat="181" d="M -0.031556 -0.046397 l -0.000127 -0.000634 0.000692 -0.000138 0.000127 0.000633 -0.000691 0.000138" />
  <path gg:cat="183" d="M 0.000393 0.054580 l -0.000927 0.000001 0.000004 -0.000482 0.000413 -0.000428 0.000509 0.000004 0.000000 0.000905" />
  <path gg:cat="184" d="M 0.042728 0.001595 l -0.000952 -0.000001 0.000001 -0.000880 0.000448 0.000001 0.000001 -0.000299 0.000504 0.000001 -0.000002 0.001180" />
  <path gg:cat="185" d="M 0.044076 -0.002344 l 0.000344 0.000000 0.000000 -0.000211 -0.000627 -0.000000 0.000000 -0.000379 0.000874 0.000000 -0.000000 0.000379 -0.000139 0.000000 -0.000000 0.000211 0.000126 0.000000 -0.000000 0.000684 -0.000852 -0.000000 0.000000 -0.000490 0.000274 0.000000 0.000000 -0.000194" />
  <path gg:cat="186" d="M -0.026399 -0.040769 l -0.000088 -0.000672 0.000677 -0.000088 0.000088 0.000672 -0.000677 0.000089" />
  <path gg:cat="187" d="M -0.059561 -0.016052 l -0.001643 -0.000001 0.000001 -0.001031 0.001643 0.000001 -0.000001 0.001031" />
  <path gg:cat="188" d="M -0.002635 0.057848 l -0.000000 -0.000658 0.000547 -0.000000 0.000000 0.000256 0.000593 0.000035 0.000000 0.000328 -0.001140 0.000039" />
  <path gg:cat="189" d="M 0.040920 0.016425 l -0.000555 0.000000 0.000000 -0.000592 0.000555 0.000000 0.000000 0.000592" />
  <path gg:cat="190" d="M -0.059511 -0.005757 l -0.001441 -0.000001 0.000001 -0.001272 0.001441 0.000001 -0.000001 0.001272" />
  <path gg:cat="194" d="M -0.028832 -0.039066 l -0.000030 -0.000666 0.000742 -0.000034 0.000030 0.000666 -0.000742 0.000034" />
  <path gg:cat="200" d="M -0.021476 0.020965 l 0.000111 0.000195 -0.000685 0.000389 -0.000111 -0.000195 0.000685 -0.000389" />
  <path gg:cat="201" d="M 0.050436 0.002840 l -0.000404 -0.000001 -0.000823 -0.000002 -0.000066 -0.000000 -0.000034 -0.000000 0.000002 -0.001294 0.000002 -0.001252 0.000486 0.000001 -0.000001 0.000327 0.000500 0.000001 -0.000001 0.000926 -0.000887 -0.000001 -0.000001 0.000562 0.000823 0.000002 0.000109 0.000000 0.000293 0.000733" />
  <path gg:cat="202" d="M -0.046501 -0.012238 l -0.000792 -0.000000 0.000001 -0.001331 0.000792 0.000000 -0.000001 0.001331" />
  <path gg:cat="204" d="M 0.048823 -0.001537 l -0.000941 -0.000000 0.000001 -0.001412 0.000941 0.000000 -0.000001 0.001412" />
  <path gg:cat="206" d="M -0.021614 0.023511 l 0.000011 0.000227 -0.000773 0.000036 -0.000011 -0.000227 0.000773 -0.000036" />
  <path gg:cat="209" d="M 0.047207 0.004340 l -0.001370 -0.000002 0.000001 -0.000819 0.001370 0.000002 -0.000001 0.000819" />
  <path gg:cat="210" d="M -0.031732 -0.044046 l -0.000399 -0.000526 0.000616 -0.000468 0.000399 0.000526 -0.000616 0.000468" />
  <path gg:cat="212" d="M -0.001770 0.056291 l -0.000486 0.000000 -0.000001 -0.000841 0.000486 -0.000000 0.000000 0.000841" />
  <path gg:cat="214" d="M -0.052511 -0.003014 l -0.000000 0.000610 -0.000631 -0.000000 0.000000 -0.000611 0.000631 0.000000" />
  <path gg:cat="215" d="M 0.004733 0.047387 l 0.000269 0.000128 -0.000256 0.000540 -0.000269 -0.000128 0.000256 -0.000540" />
  <path gg:cat="217" d="M -0.030151 -0.042672 l 0.000194 0.000306 -0.000297 0.000188 -0.000194 -0.000306 0.000297 -0.000188" />
  <path gg:cat="219" d="M 0.019561 -0.044657 l -0.000554 0.000247 -0.000225 -0.000505 0.000554 -0.000247 0.000225 0.000505" />
  <path gg:cat="221" d="M 0.005193 0.058276 l -0.000000 -0.000499 0.000733 -0.000000 0.000000 0.000499 -0.000733 0.000000" />
  <path gg:cat="222" d="M -0.065354 0.043387 l 0.000000 -0.000348 0.000376 0.000000 0.000000 0.000348 -0.000376 0.000000" />
  <path gg:cat="224" d="M 0.034200 0.000031 l 0.000000 -0.000839 -0.000283 -0.000000 0.000001 -0.001108 0.000273 0.000000 0.000000 -0.000848 0.000235 0.000000 -0.000001 0.002795 -0.000225 -0.000000" />
  <path gg:cat="226" d="M 0.041121 0.017274 l 0.000000 0.000973 -0.000757 0.000000 0.000000 -0.000973 0.000757 0.000000" />
 </g>
</svg>
